<svg width="48" height="48" viewBox="0 0 48 48" fill="none" xmlns="http://www.w3.org/2000/svg">
<g clip-path="url(#clip0_287_6537)">
<path d="M0 24C0 10.7452 10.7452 0 24 0C37.2548 0 48 10.7452 48 24C48 37.2548 37.2548 48 24 48C10.7452 48 0 37.2548 0 24Z" fill="#E3E7EB"/>
<path fill-rule="evenodd" clip-rule="evenodd" d="M42.6668 51V46.3333C42.6668 41.1787 38.4881 37 33.3335 37H14.6668C9.51217 37 5.3335 41.1787 5.3335 46.3333V51" fill="#7B8794"/>
<path d="M42.6668 51V46.3333C42.6668 41.1787 38.4881 37 33.3335 37H14.6668C9.51217 37 5.3335 41.1787 5.3335 46.3333V51" stroke="#7B8794" stroke-width="2" stroke-linecap="round" stroke-linejoin="round"/>
<path fill-rule="evenodd" clip-rule="evenodd" d="M23.9998 27.6667C29.1545 27.6667 33.3332 23.488 33.3332 18.3333C33.3332 13.1787 29.1545 9 23.9998 9C18.8452 9 14.6665 13.1787 14.6665 18.3333C14.6665 23.488 18.8452 27.6667 23.9998 27.6667Z" fill="#7B8794" stroke="#7B8794" stroke-width="2" stroke-linecap="round" stroke-linejoin="round"/>
</g>
<path d="M24 47.5C11.0213 47.5 0.5 36.9787 0.5 24H-0.5C-0.5 37.531 10.469 48.5 24 48.5V47.5ZM47.5 24C47.5 36.9787 36.9787 47.5 24 47.5V48.5C37.531 48.5 48.5 37.531 48.5 24H47.5ZM24 0.5C36.9787 0.5 47.5 11.0213 47.5 24H48.5C48.5 10.469 37.531 -0.5 24 -0.5V0.5ZM24 -0.5C10.469 -0.5 -0.5 10.469 -0.5 24H0.5C0.5 11.0213 11.0213 0.5 24 0.5V-0.5Z" fill="#7B8794"/>
<defs>
<clipPath id="clip0_287_6537">
<path d="M0 24C0 10.7452 10.7452 0 24 0C37.2548 0 48 10.7452 48 24C48 37.2548 37.2548 48 24 48C10.7452 48 0 37.2548 0 24Z" fill="white"/>
</clipPath>
</defs>
</svg>
