<?xml version="1.0" encoding="iso-8859-1"?>
<!-- Generator: Adobe Illustrator 18.1.1, SVG Export Plug-In . SVG Version: 6.00 Build 0)  -->
<svg version="1.1" id="Capa_1" xmlns="http://www.w3.org/2000/svg" xmlns:xlink="http://www.w3.org/1999/xlink" x="0px" y="0px"
	 viewBox="0 0 25.138 25.138" style="enable-background:new 0 0 25.138 25.138;" xml:space="preserve">
<g>
	<path d="M12.568,0.001C5.627,0.001,0,5.628,0,12.569c0,6.943,5.627,12.568,12.568,12.568c6.943,0,12.57-5.625,12.57-12.568
		C25.139,5.628,19.512,0.001,12.568,0.001z M21.32,12.569c0,1.723-0.502,3.33-1.365,4.686L7.885,5.183
		c1.355-0.863,2.961-1.367,4.684-1.367C17.395,3.815,21.32,7.741,21.32,12.569z M3.818,12.569c0-1.725,0.502-3.33,1.363-4.686
		l12.072,12.072c-1.354,0.859-2.963,1.365-4.686,1.365C7.742,21.321,3.818,17.394,3.818,12.569z"/>
</svg>
