<svg width="44" height="44" viewBox="0 0 44 44" fill="none" xmlns="http://www.w3.org/2000/svg">
<g filter="url(#filter0_ddd_1850_14864)">
<path fill-rule="evenodd" clip-rule="evenodd" d="M31.3894 17.722C31.2794 17.7164 31.1695 17.7347 31.0672 17.7756C30.9649 17.8165 30.8727 17.879 30.7968 17.9589C30.721 18.0388 30.6634 18.1341 30.6279 18.2383C30.5924 18.3425 30.5799 18.4531 30.5913 18.5626V30.2023H24.8445V25.4732C24.8514 25.2695 24.7817 25.0707 24.6492 24.9159C24.5166 24.7611 24.3308 24.6615 24.1284 24.6368H19.9693C19.7474 24.6449 19.5364 24.7348 19.377 24.8893C19.2177 25.0438 19.1213 25.2518 19.1065 25.4732V30.1894H13.4417V18.9808C13.4458 18.8729 13.4282 18.7654 13.3901 18.6644C13.3519 18.5634 13.294 18.471 13.2196 18.3927C13.1453 18.3144 13.056 18.2517 12.9571 18.2084C12.8582 18.165 12.7516 18.1418 12.6436 18.1402C12.5337 18.1353 12.4241 18.1541 12.3222 18.1953C12.2202 18.2364 12.1283 18.2989 12.0527 18.3786C11.977 18.4583 11.9193 18.5533 11.8836 18.6572C11.8478 18.7611 11.8348 18.8715 11.8454 18.9808V31.1378C11.8408 31.2469 11.8578 31.3558 11.8955 31.4582C11.9332 31.5607 11.9908 31.6547 12.0649 31.7349C12.1391 31.815 12.2284 31.8797 12.3277 31.9252C12.4271 31.9707 12.5344 31.9961 12.6436 32H19.978C20.1838 31.9731 20.3718 31.8691 20.5039 31.7091C20.6361 31.5491 20.7025 31.3449 20.6898 31.1378V26.3138H23.2439V31.1335C23.2525 31.3594 23.3461 31.5738 23.5061 31.7337C23.6661 31.8936 23.8807 31.9872 24.1068 31.9957H31.3678C31.5828 31.9728 31.7821 31.8728 31.9289 31.7143C32.0757 31.5557 32.1599 31.3494 32.166 31.1335V18.5626C32.1695 18.4549 32.1515 18.3476 32.1131 18.2469C32.0748 18.1461 32.0168 18.054 31.9426 17.9758C31.8683 17.8976 31.7793 17.8349 31.6806 17.7914C31.582 17.7478 31.4757 17.7242 31.3678 17.722H31.3894ZM12.6349 5.45292C12.8606 5.484 13.0647 5.60296 13.2029 5.78386C13.3411 5.96475 13.4022 6.1929 13.3727 6.41857V12.8204L21.406 4.3105C21.4797 4.21236 21.5755 4.13306 21.6858 4.0791C21.796 4.02515 21.9175 3.99807 22.0402 4.00011C22.1397 4.00951 22.2355 4.0426 22.3196 4.09661C22.4037 4.15061 22.4736 4.22395 22.5234 4.3105C27.2218 9.23365 30.492 12.6911 35.7598 18.3514C35.9145 18.5238 36 18.7472 36 18.9787C36 19.2102 35.9145 19.4335 35.7598 19.6059C35.6015 19.7336 35.4066 19.8076 35.2033 19.8171C34.9967 19.829 34.7938 19.7593 34.6381 19.6231L22.0359 6.1125L9.35605 19.4119C9.29875 19.5084 9.21729 19.5883 9.11971 19.6439C9.02213 19.6994 8.91177 19.7286 8.79948 19.7286C8.68719 19.7286 8.57683 19.6994 8.47925 19.6439C8.38167 19.5883 8.30024 19.5084 8.24294 19.4119C8.16214 19.3522 8.09767 19.2731 8.05545 19.1819C8.01323 19.0908 7.99463 18.9905 8.00134 18.8903C8.00863 18.6593 8.09376 18.4375 8.24294 18.2609L11.8929 14.381V6.41857C11.8634 6.1929 11.9244 5.96475 12.0626 5.78386C12.2008 5.60296 12.405 5.484 12.6306 5.45292H12.6349Z" fill="#093269"/>
</g>
<defs>
<filter id="filter0_ddd_1850_14864" x="0" y="0" width="44" height="44" filterUnits="userSpaceOnUse" color-interpolation-filters="sRGB">
<feFlood flood-opacity="0" result="BackgroundImageFix"/>
<feColorMatrix in="SourceAlpha" type="matrix" values="0 0 0 0 0 0 0 0 0 0 0 0 0 0 0 0 0 0 127 0" result="hardAlpha"/>
<feOffset/>
<feGaussianBlur stdDeviation="0.5"/>
<feColorMatrix type="matrix" values="0 0 0 0 0 0 0 0 0 0 0 0 0 0 0 0 0 0 0.04 0"/>
<feBlend mode="normal" in2="BackgroundImageFix" result="effect1_dropShadow_1850_14864"/>
<feColorMatrix in="SourceAlpha" type="matrix" values="0 0 0 0 0 0 0 0 0 0 0 0 0 0 0 0 0 0 127 0" result="hardAlpha"/>
<feOffset/>
<feGaussianBlur stdDeviation="1"/>
<feColorMatrix type="matrix" values="0 0 0 0 0 0 0 0 0 0 0 0 0 0 0 0 0 0 0.06 0"/>
<feBlend mode="normal" in2="effect1_dropShadow_1850_14864" result="effect2_dropShadow_1850_14864"/>
<feColorMatrix in="SourceAlpha" type="matrix" values="0 0 0 0 0 0 0 0 0 0 0 0 0 0 0 0 0 0 127 0" result="hardAlpha"/>
<feOffset dy="4"/>
<feGaussianBlur stdDeviation="4"/>
<feColorMatrix type="matrix" values="0 0 0 0 0 0 0 0 0 0 0 0 0 0 0 0 0 0 0.04 0"/>
<feBlend mode="normal" in2="effect2_dropShadow_1850_14864" result="effect3_dropShadow_1850_14864"/>
<feBlend mode="normal" in="SourceGraphic" in2="effect3_dropShadow_1850_14864" result="shape"/>
</filter>
</defs>
</svg>
