<svg width="375" height="84" viewBox="0 0 375 84" fill="none" xmlns="http://www.w3.org/2000/svg">
<path d="M123.391 67C121.07 67 119.09 66.1836 117.449 64.5508C115.816 62.9102 115 60.9297 115 58.6094C115 56.2344 115.816 54.2305 117.449 52.5977C119.09 50.957 121.07 50.1367 123.391 50.1367C125.703 50.1367 127.676 50.957 129.309 52.5977C130.949 54.2305 131.77 56.207 131.77 58.5273C131.77 60.9023 130.949 62.9102 129.309 64.5508C127.676 66.1836 125.703 67 123.391 67ZM123.461 64.3867C125.086 64.3867 126.477 63.8125 127.633 62.6641C128.789 61.5078 129.367 60.1172 129.367 58.4922C129.367 56.8594 128.789 55.4688 127.633 54.3203C126.477 53.1641 125.086 52.5859 123.461 52.5859C121.828 52.5859 120.434 53.1641 119.277 54.3203C118.129 55.4688 117.555 56.8594 117.555 58.4922C117.555 60.1172 118.129 61.5078 119.277 62.6641C120.434 63.8125 121.828 64.3867 123.461 64.3867ZM152.289 67V50.1484C151.633 50.1484 151.074 50.3789 150.613 50.8398C150.418 51.043 150.262 51.2734 150.145 51.5312L150.121 51.5195L142.914 63.2383L135.695 51.5195L135.684 51.5312C135.566 51.2734 135.406 51.043 135.203 50.8398C134.742 50.3789 134.188 50.1484 133.539 50.1484V67C134.188 67 134.742 66.7695 135.203 66.3086C135.664 65.8477 135.895 65.293 135.895 64.6445V56.3594L141.004 64.6445C141.176 64.918 141.383 65.1445 141.625 65.3242C142.016 65.5977 142.445 65.7461 142.914 65.7695C143.383 65.7461 143.809 65.5977 144.191 65.3242C144.441 65.1445 144.652 64.918 144.824 64.6445L149.922 56.3594V64.6445C149.922 65.293 150.152 65.8477 150.613 66.3086C151.074 66.7695 151.633 67 152.289 67ZM147.121 50.3242V50.2891H147.098L147.121 50.3242ZM161.465 58.4219C162.113 58.4219 162.668 58.1914 163.129 57.7305C163.59 57.2695 163.82 56.7109 163.82 56.0547H159.297C158.648 56.0547 158.094 56.2852 157.633 56.7461C157.172 57.207 156.941 57.7656 156.941 58.4219H161.465ZM165.262 67H154.141H154.047V50.1484H165.262C165.262 50.7969 165.031 51.3516 164.57 51.8125C164.109 52.2734 163.555 52.5039 162.906 52.5039H156.414V64.6328H162.906C163.555 64.6328 164.109 64.8633 164.57 65.3242C165.031 65.7852 165.262 66.3438 165.262 67ZM179.395 67V52.5039H172.984C172.984 51.8555 173.215 51.3008 173.676 50.8398C174.137 50.3789 174.695 50.1484 175.352 50.1484H188.172C188.172 50.7969 187.938 51.3516 187.469 51.8125C187.008 52.2734 186.453 52.5039 185.805 52.5039H181.762V64.6328C181.762 65.2891 181.531 65.8477 181.07 66.3086C180.609 66.7695 180.051 67 179.395 67ZM202.34 67.0117C202.129 67.0117 201.816 66.9531 201.402 66.8359C200.996 66.7188 200.621 66.3711 200.277 65.793L197.055 60.0391H193.938C193.938 59.3906 194.168 58.8359 194.629 58.375C195.09 57.9141 195.648 57.6836 196.305 57.6836H198.555C199.266 57.6836 199.871 57.4336 200.371 56.9336C200.879 56.4258 201.133 55.8125 201.133 55.0938C201.133 54.3828 200.879 53.7773 200.371 53.2773C199.871 52.7695 199.266 52.5156 198.555 52.5156H192.297V64.6445C192.297 65.293 192.062 65.8477 191.594 66.3086C191.133 66.7695 190.578 67 189.93 67V50.1484H198.555C199.914 50.1484 201.078 50.6328 202.047 51.6016C203.016 52.5703 203.5 53.7344 203.5 55.0938C203.5 56.4609 203.016 57.6289 202.047 58.5977C201.391 59.2461 200.602 59.6836 199.68 59.9102L203.5 66.707C203.117 66.9102 202.73 67.0117 202.34 67.0117ZM211.258 67C212.625 67 213.836 66.5938 214.891 65.7812C216.461 64.5469 217.246 62.957 217.246 61.0117V50.1484C216.598 50.1484 216.043 50.3789 215.582 50.8398C215.121 51.3008 214.891 51.8594 214.891 52.5156V61.0117C214.891 62.0117 214.535 62.8672 213.824 63.5781C213.113 64.2891 212.258 64.6445 211.258 64.6445C210.25 64.6445 209.391 64.2891 208.68 63.5781C207.977 62.8672 207.625 62.0117 207.625 61.0117V52.5156C207.625 51.8594 207.395 51.3008 206.934 50.8398C206.473 50.3789 205.914 50.1484 205.258 50.1484V61.0117C205.258 62.957 206.047 64.5469 207.625 65.7812C208.68 66.5938 209.891 67 211.258 67ZM237.766 67V50.1484C237.109 50.1484 236.551 50.3789 236.09 50.8398C235.895 51.043 235.738 51.2734 235.621 51.5312L235.598 51.5195L228.391 63.2383L221.172 51.5195L221.16 51.5312C221.043 51.2734 220.883 51.043 220.68 50.8398C220.219 50.3789 219.664 50.1484 219.016 50.1484V67C219.664 67 220.219 66.7695 220.68 66.3086C221.141 65.8477 221.371 65.293 221.371 64.6445V56.3594L226.48 64.6445C226.652 64.918 226.859 65.1445 227.102 65.3242C227.492 65.5977 227.922 65.7461 228.391 65.7695C228.859 65.7461 229.285 65.5977 229.668 65.3242C229.918 65.1445 230.129 64.918 230.301 64.6445L235.398 56.3594V64.6445C235.398 65.293 235.629 65.8477 236.09 66.3086C236.551 66.7695 237.109 67 237.766 67ZM232.598 50.3242V50.2891H232.574L232.598 50.3242ZM239.523 67C240.172 67 240.727 66.7695 241.188 66.3086C241.656 65.8398 241.891 65.2812 241.891 64.6328V52.5039H248.148C248.859 52.5039 249.465 52.7578 249.965 53.2656C250.473 53.7656 250.727 54.375 250.727 55.0938C250.727 55.8047 250.473 56.4141 249.965 56.9219C249.465 57.4219 248.859 57.6719 248.148 57.6719H245.898C245.242 57.6719 244.684 57.9023 244.223 58.3633C243.762 58.8242 243.531 59.3828 243.531 60.0391H248.148C249.516 60.0391 250.68 59.5547 251.641 58.5859C252.609 57.6172 253.094 56.4531 253.094 55.0938C253.094 53.7266 252.609 52.5586 251.641 51.5898C250.672 50.6211 249.508 50.1367 248.148 50.1367H239.523V67ZM262.27 58.4219C262.918 58.4219 263.473 58.1914 263.934 57.7305C264.395 57.2695 264.625 56.7109 264.625 56.0547H260.102C259.453 56.0547 258.898 56.2852 258.438 56.7461C257.977 57.207 257.746 57.7656 257.746 58.4219H262.27ZM266.066 67H254.945H254.852V50.1484H266.066C266.066 50.7969 265.836 51.3516 265.375 51.8125C264.914 52.2734 264.359 52.5039 263.711 52.5039H257.219V64.6328H263.711C264.359 64.6328 264.914 64.8633 265.375 65.3242C265.836 65.7852 266.066 66.3438 266.066 67ZM274.246 67V52.5039H267.836C267.836 51.8555 268.066 51.3008 268.527 50.8398C268.988 50.3789 269.547 50.1484 270.203 50.1484H283.023C283.023 50.7969 282.789 51.3516 282.32 51.8125C281.859 52.2734 281.305 52.5039 280.656 52.5039H276.613V64.6328C276.613 65.2891 276.383 65.8477 275.922 66.3086C275.461 66.7695 274.902 67 274.246 67ZM292.199 58.4219C292.848 58.4219 293.402 58.1914 293.863 57.7305C294.324 57.2695 294.555 56.7109 294.555 56.0547H290.031C289.383 56.0547 288.828 56.2852 288.367 56.7461C287.906 57.207 287.676 57.7656 287.676 58.4219H292.199ZM295.996 67H284.875H284.781V50.1484H295.996C295.996 50.7969 295.766 51.3516 295.305 51.8125C294.844 52.2734 294.289 52.5039 293.641 52.5039H287.148V64.6328H293.641C294.289 64.6328 294.844 64.8633 295.305 65.3242C295.766 65.7852 295.996 66.3438 295.996 67ZM310.176 67.0117C309.965 67.0117 309.652 66.9531 309.238 66.8359C308.832 66.7188 308.457 66.3711 308.113 65.793L304.891 60.0391H301.773C301.773 59.3906 302.004 58.8359 302.465 58.375C302.926 57.9141 303.484 57.6836 304.141 57.6836H306.391C307.102 57.6836 307.707 57.4336 308.207 56.9336C308.715 56.4258 308.969 55.8125 308.969 55.0938C308.969 54.3828 308.715 53.7773 308.207 53.2773C307.707 52.7695 307.102 52.5156 306.391 52.5156H300.133V64.6445C300.133 65.293 299.898 65.8477 299.43 66.3086C298.969 66.7695 298.414 67 297.766 67V50.1484H306.391C307.75 50.1484 308.914 50.6328 309.883 51.6016C310.852 52.5703 311.336 53.7344 311.336 55.0938C311.336 56.4609 310.852 57.6289 309.883 58.5977C309.227 59.2461 308.438 59.6836 307.516 59.9102L311.336 66.707C310.953 66.9102 310.566 67.0117 310.176 67.0117Z" fill="#093269"/>
<path fill-rule="evenodd" clip-rule="evenodd" d="M106.108 39.4638C105.896 39.4531 105.684 39.4884 105.487 39.5673C105.289 39.6461 105.112 39.7667 104.965 39.9207C104.819 40.0747 104.708 40.2585 104.64 40.4595C104.571 40.6605 104.547 40.8739 104.569 41.0851V63.533H93.4859V54.4125C93.4992 54.0198 93.3648 53.6363 93.1091 53.3378C92.8534 53.0392 92.4951 52.8472 92.1047 52.7996H84.0837C83.6558 52.8151 83.2488 52.9886 82.9414 53.2865C82.6341 53.5844 82.4482 53.9856 82.4196 54.4125V63.5081H71.4948V41.8915C71.5025 41.6835 71.4687 41.476 71.3951 41.2813C71.3216 41.0865 71.2098 40.9084 71.0664 40.7574C70.923 40.6064 70.7509 40.4855 70.5601 40.4019C70.3693 40.3182 70.1638 40.2735 69.9555 40.2703C69.7436 40.261 69.5323 40.2972 69.3357 40.3766C69.139 40.4559 68.9618 40.5765 68.8159 40.7302C68.6699 40.8839 68.5587 41.0671 68.4898 41.2675C68.4208 41.4679 68.3957 41.6807 68.4161 41.8915V65.3372C68.4072 65.5475 68.4401 65.7576 68.5127 65.9552C68.5854 66.1528 68.6965 66.3341 68.8395 66.4887C68.9826 66.6432 69.1548 66.768 69.3464 66.8557C69.5379 66.9435 69.7449 66.9925 69.9555 67H84.1004C84.4974 66.9481 84.8599 66.7476 85.1147 66.439C85.3696 66.1303 85.4977 65.7366 85.4732 65.3372V56.0338H90.399V65.3289C90.4155 65.7646 90.5961 66.1781 90.9047 66.4864C91.2133 66.7948 91.627 66.9752 92.0631 66.9917H106.067C106.481 66.9476 106.866 66.7548 107.149 66.449C107.432 66.1432 107.594 65.7452 107.606 65.3289V41.0851C107.613 40.8773 107.578 40.6703 107.504 40.4761C107.43 40.2818 107.318 40.1042 107.175 39.9534C107.032 39.8026 106.86 39.6817 106.67 39.5976C106.48 39.5136 106.275 39.4681 106.067 39.4638H106.108ZM69.9388 15.8021C70.3739 15.862 70.7677 16.0914 71.0342 16.4403C71.3008 16.7892 71.4185 17.2292 71.3616 17.6644V30.0108L86.8545 13.5988C86.9965 13.4095 87.1813 13.2566 87.394 13.1526C87.6066 13.0485 87.8409 12.9963 88.0776 13.0002C88.2695 13.0183 88.4542 13.0822 88.6163 13.1863C88.7785 13.2905 88.9133 13.4319 89.0095 13.5988C98.0705 23.0935 104.377 29.7613 114.537 40.6777C114.835 41.0102 115 41.4409 115 41.8874C115 42.3339 114.835 42.7646 114.537 43.0971C114.231 43.3434 113.856 43.4861 113.464 43.5045C113.065 43.5273 112.674 43.3929 112.374 43.1303L88.0692 17.0741L63.6152 42.723C63.5047 42.9091 63.3476 43.0632 63.1594 43.1703C62.9713 43.2774 62.7584 43.3337 62.5419 43.3337C62.3253 43.3337 62.1125 43.2774 61.9243 43.1703C61.7361 43.0632 61.579 42.9091 61.4685 42.723C61.3127 42.6077 61.1884 42.4552 61.1069 42.2794C61.0255 42.1036 60.9896 41.9102 61.0026 41.717C61.0166 41.2715 61.1808 40.8437 61.4685 40.5031L68.5077 33.0205V17.6644C68.4509 17.2292 68.5685 16.7892 68.8351 16.4403C69.1016 16.0914 69.4954 15.862 69.9305 15.8021H69.9388Z" fill="#093269"/>
<rect x="112" y="41" width="201" height="3" rx="1.5" fill="#093269"/>
</svg>
